# xmcd
#
# Track frame offsets: 
#        150
#        22965
#        43689
#        57018
#        81231
#        108003
#        145638
#        187113
#        210150
#        234711
#        252624
#        274761
#        292077
#
# Disc length: 4549 seconds
#
# Revision: 0
# Processed by: cddbd v1.5.2PL0 Copyright (c) Steve Scherf et al.
# Submitted via: ExactAudioCopyFreeDBPlugin 1.0
#
DISCID=b711c30d
DTITLE=Cotton Blues - Live
DYEAR=1900
DGENRE=Blues
TTITLE0=Singing on the road
TTITLE1=You upset me, baby
TTITLE2=Don't do me no favour
TTITLE3=Hard heated baby
TTITLE4=Miss you
TTITLE5=Got my Mojo working
TTITLE6=Gloria and Road house blues
TTITLE7=While my guitar gently weeps
TTITLE8=When love comes to town
TTITLE9=Stuck in the middle with you
TTITLE10=Amazing grace
TTITLE11=Honky tonk woman
TTITLE12=Boogie top and Blue suede shoes
EXTD=
EXTT0=
EXTT1=
EXTT2=
EXTT3=
EXTT4=
EXTT5=
EXTT6=
EXTT7=
EXTT8=
EXTT9=
EXTT10=
EXTT11=
EXTT12=
PLAYORDER=
